<svg xmlns="http://www.w3.org/2000/svg" viewBox="0 0 151.58 173.15"><defs><style>.a307900b-9c95-473e-9e2a-8698f3136059{fill:#263779;}.a566754c-0ea6-42f5-8fe6-6eb29c07e262{fill:#4ed1f8;}.be96fbcb-4acb-408d-9fdf-bf0de1fc8ac1{fill:#1b8c98;}</style></defs><g id="e4f172e7-2d99-4da3-bc53-a3dc40efffd5" data-name="Layer 2"><g id="b2d184cf-1ed5-45ea-8efc-7cff82634f6f" data-name="Layer 2"><path class="a307900b-9c95-473e-9e2a-8698f3136059" d="M75.79,173.15a5,5,0,0,1-1.57-.26c-17.14-5.82-31.73-17-43.36-33.17C21.69,127,14.36,111.11,9.05,92.56A242.53,242.53,0,0,1,0,32.25a5.34,5.34,0,0,1,4.65-5.42C5,26.79,45,22.45,72.77,1a4.9,4.9,0,0,1,6,0c27.8,21.41,67.72,25.75,68.12,25.79a5.34,5.34,0,0,1,4.65,5.42,242.81,242.81,0,0,1-9.06,60.31c-5.3,18.55-12.64,34.41-21.8,47.16-11.64,16.19-26.23,27.35-43.36,33.17A5,5,0,0,1,75.79,173.15ZM10.43,37A238.48,238.48,0,0,0,19,89.65C30,127.91,49.08,152.22,75.79,162c26.77-9.76,45.91-34.16,56.9-72.56A238.68,238.68,0,0,0,141.15,37c-11.51-1.78-41.34-7.8-65.36-24.94C51.76,29.22,21.94,35.25,10.43,37Z"/><path class="a566754c-0ea6-42f5-8fe6-6eb29c07e262" d="M102.08,39.59h19.43V59.35H102.08Z"/><path class="be96fbcb-4acb-408d-9fdf-bf0de1fc8ac1" d="M66.19,55.88l11.42-16L93.33,51.51l-11.42,16Z"/><path class="be96fbcb-4acb-408d-9fdf-bf0de1fc8ac1" d="M93.07,72.76l18.38-6.45L117.78,85,99.41,91.45Z"/><path class="a566754c-0ea6-42f5-8fe6-6eb29c07e262" d="M37.88,59.19H57.32V79H37.88Z"/><path class="be96fbcb-4acb-408d-9fdf-bf0de1fc8ac1" d="M37.88,82.11H57.32v19.76H37.88Z"/><path class="a566754c-0ea6-42f5-8fe6-6eb29c07e262" d="M60.26,82.11H79.7v19.76H60.26Z"/><path class="a566754c-0ea6-42f5-8fe6-6eb29c07e262" d="M37.88,104.86H57.32v19.77H37.88Z"/><path class="be96fbcb-4acb-408d-9fdf-bf0de1fc8ac1" d="M60.26,104.86H79.7v19.77H60.26Z"/><path class="a566754c-0ea6-42f5-8fe6-6eb29c07e262" d="M82.8,104.86h19.44v19.77H82.8Z"/></g></g></svg>