<svg xmlns="http://www.w3.org/2000/svg" viewBox="0 0 933.15 173.15"><defs><style>.ab6d3144-8f9e-4337-803a-083e42bb9a89{fill:#36c6f4;}.aa66a7c6-8296-4944-906a-539502b73548{fill:#4ed1f8;}.f2d47868-5621-4452-9bf7-6ad2b3299c79{fill:#1b8c98;}.b0b82f6c-25c9-434b-b004-2b5963e8eb78{fill:#967251;}</style></defs><g id="f6d6f5b4-0517-4454-9cad-5d542f0689e4" data-name="Layer 2"><path class="ab6d3144-8f9e-4337-803a-083e42bb9a89" d="M558.42,178.13a4.7,4.7,0,0,1-1.57-.26c-17.14-5.82-31.73-17-43.36-33.17C504.32,132,497,116.09,491.68,97.55a242.58,242.58,0,0,1-9.05-60.31,5.34,5.34,0,0,1,4.64-5.43c.4,0,40.32-4.38,68.13-25.79a4.92,4.92,0,0,1,6,0c27.8,21.41,67.72,25.75,68.12,25.79a5.35,5.35,0,0,1,4.64,5.43,242.58,242.58,0,0,1-9.05,60.31c-5.3,18.54-12.64,34.41-21.8,47.15-11.64,16.19-26.23,27.35-43.37,33.17A4.6,4.6,0,0,1,558.42,178.13ZM493.06,42a238.41,238.41,0,0,0,8.53,52.61c11,38.26,30.12,62.58,56.83,72.32,26.77-9.76,45.91-34.17,56.9-72.57A238.7,238.7,0,0,0,623.78,42c-11.51-1.78-41.34-7.81-65.36-24.94C534.39,34.21,504.57,40.23,493.06,42Z" transform="translate(-5.43 -4.98)"/><path class="aa66a7c6-8296-4944-906a-539502b73548" d="M584.71,44.57h19.43V64.34H584.71Z" transform="translate(-5.43 -4.98)"/><path class="f2d47868-5621-4452-9bf7-6ad2b3299c79" d="M548.82,60.86l11.42-16L576,56.49l-11.42,16Z" transform="translate(-5.43 -4.98)"/><path class="f2d47868-5621-4452-9bf7-6ad2b3299c79" d="M575.7,77.74l18.38-6.44L600.41,90,582,96.43Z" transform="translate(-5.43 -4.98)"/><path class="aa66a7c6-8296-4944-906a-539502b73548" d="M520.51,64.17H540V83.93H520.51Z" transform="translate(-5.43 -4.98)"/><path class="f2d47868-5621-4452-9bf7-6ad2b3299c79" d="M520.51,87.09H540v19.77H520.51Z" transform="translate(-5.43 -4.98)"/><path class="aa66a7c6-8296-4944-906a-539502b73548" d="M542.89,87.09h19.44v19.77H542.89Z" transform="translate(-5.43 -4.98)"/><path class="aa66a7c6-8296-4944-906a-539502b73548" d="M520.51,109.84H540v19.77H520.51Z" transform="translate(-5.43 -4.98)"/><path class="f2d47868-5621-4452-9bf7-6ad2b3299c79" d="M542.89,109.84h19.44v19.77H542.89Z" transform="translate(-5.43 -4.98)"/><path class="aa66a7c6-8296-4944-906a-539502b73548" d="M565.43,109.84h19.44v19.77H565.43Z" transform="translate(-5.43 -4.98)"/><path class="b0b82f6c-25c9-434b-b004-2b5963e8eb78" d="M57.46,146.1H46.06L23.32,80.63l1.49-2.19H44.18v-45H16.29V146.1H5.43V23.84H46.37A8.29,8.29,0,0,1,55,32.51v46.4q0,8.84-11.87,8.83c-.78,0-1.93,0-3.44-.12s-2.61-.11-3.28-.11Q47,116.73,57.46,146.1Z" transform="translate(-5.43 -4.98)"/><path class="b0b82f6c-25c9-434b-b004-2b5963e8eb78" d="M113.87,146.1H73.71V23.84H113.4v9.6H84.57V79.07h26.25v9.77H84.57v47.65h29.3Z" transform="translate(-5.43 -4.98)"/><path class="b0b82f6c-25c9-434b-b004-2b5963e8eb78" d="M180.28,137.43a8.31,8.31,0,0,1-8.68,8.67H139.49a8.29,8.29,0,0,1-8.67-8.67V32.51a8.29,8.29,0,0,1,8.67-8.67H171.6a8.31,8.31,0,0,1,8.68,8.67V60.94H169.34V33.44H141.68V136.49h27.66V94.23H156.29V84.85h24Z" transform="translate(-5.43 -4.98)"/><path class="b0b82f6c-25c9-434b-b004-2b5963e8eb78" d="M211.14,146.1H200.28V23.84h10.86Z" transform="translate(-5.43 -4.98)"/><path class="b0b82f6c-25c9-434b-b004-2b5963e8eb78" d="M279.18,137.43a8.52,8.52,0,0,1-2.38,6.25,8.35,8.35,0,0,1-6.21,2.42H239.81a8.6,8.6,0,0,1-6.29-2.42,8.38,8.38,0,0,1-2.46-6.25v-31h10.86v30.08h26.4V107.35L234.57,66.57a14.2,14.2,0,0,1-3.51-9.3V32.51a8.38,8.38,0,0,1,2.46-6.25,8.56,8.56,0,0,1,6.29-2.42h30.78a8.31,8.31,0,0,1,6.21,2.42,8.52,8.52,0,0,1,2.38,6.25V60.94H268.32V33.44h-26.4V59.23L275.82,100a14,14,0,0,1,3.36,9.14Z" transform="translate(-5.43 -4.98)"/><path class="b0b82f6c-25c9-434b-b004-2b5963e8eb78" d="M340.51,33.44H321.6V146.1H310.74V33.44H291.68v-9.6h48.83Z" transform="translate(-5.43 -4.98)"/><path class="b0b82f6c-25c9-434b-b004-2b5963e8eb78" d="M405.28,146.1H393.87L371.14,80.63l1.48-2.19H392v-45H364.1V146.1H353.24V23.84h40.94a8.29,8.29,0,0,1,8.67,8.67v46.4q0,8.84-11.87,8.83c-.78,0-1.93,0-3.44-.12s-2.6-.11-3.28-.11Q394.81,116.73,405.28,146.1Z" transform="translate(-5.43 -4.98)"/><path class="b0b82f6c-25c9-434b-b004-2b5963e8eb78" d="M470.67,24.54,455.82,74Q453,81.41,448.4,98.76V146.1H437.54V98.76a86.36,86.36,0,0,0-3.36-12.5Q430.43,75,430.12,74L415.28,24.54v-.7h11L443.09,85l16.64-61.17h10.94Z" transform="translate(-5.43 -4.98)"/><path class="b0b82f6c-25c9-434b-b004-2b5963e8eb78" d="M692.17,146.1H681.39l-4.29-27.19H652.8l-4.3,27.19H638v-.31l21.8-122.27h10.7Zm-16.48-36.8L665,43.05,654.21,109.3Z" transform="translate(-5.43 -4.98)"/><path class="b0b82f6c-25c9-434b-b004-2b5963e8eb78" d="M757.25,124q0,9.69-6.36,15.9a22.08,22.08,0,0,1-16.06,6.21h-28V23.84h28q9.76,0,16.09,6.21T757.25,46Zm-10.86-1.09v-76a13,13,0,0,0-3.79-9.72,13.37,13.37,0,0,0-9.8-3.71H717.72v103h14.45a14.59,14.59,0,0,0,10.28-3.63Q746.4,129.23,746.39,122.9Z" transform="translate(-5.43 -4.98)"/><path class="b0b82f6c-25c9-434b-b004-2b5963e8eb78" d="M836.78,146.1H826.55V68.68c0-1.09.36-4.3,1.09-9.61l-20,75.55h-2.18l-20-75.55c.72,5.37,1.09,8.57,1.09,9.61V146.1H776.32V23.84h10.07l19.85,79.53a30.25,30.25,0,0,1,.31,3.51,28.63,28.63,0,0,1,.31-3.51l19.85-79.53h10.07Z" transform="translate(-5.43 -4.98)"/><path class="b0b82f6c-25c9-434b-b004-2b5963e8eb78" d="M867.8,146.1H856.94V23.84H867.8Z" transform="translate(-5.43 -4.98)"/><path class="b0b82f6c-25c9-434b-b004-2b5963e8eb78" d="M938.58,146.1h-7.5L898.42,56.18V146.1H888.19V23.84h8.13l32,88.36V23.84h10.23Z" transform="translate(-5.43 -4.98)"/></g></svg>